<?xml version="1.0" standalone="no"?>
<!DOCTYPE svg PUBLIC "-//W3C//DTD SVG 20010904//EN"
 "http://www.w3.org/TR/2001/REC-SVG-20010904/DTD/svg10.dtd">
<svg version="1.0" xmlns="http://www.w3.org/2000/svg"
 width="240.000000pt" height="240.000000pt" viewBox="0 0 240.000000 240.000000"
 preserveAspectRatio="xMidYMid meet">
<metadata>
Created by potrace 1.11, written by Peter Selinger 2001-2013
</metadata>
<g transform="translate(0.000000,240.000000) scale(0.100000,-0.100000)"
fill="#000000" stroke="none">
<path d="M1028 2338 c-27 -7 -38 -15 -38 -29 0 -14 7 -19 28 -19 27 0 29 -4
47 -77 10 -43 20 -85 22 -93 2 -8 11 -48 21 -88 12 -47 15 -72 8 -71 -33 4
-50 -1 -39 -12 6 -6 9 -17 6 -25 -4 -10 5 -10 47 1 29 8 54 15 56 17 3 4 -12
69 -23 98 -3 8 -7 22 -9 30 -1 8 -5 29 -8 45 -3 17 -12 59 -21 95 -38 156 -30
146 -97 128z"/>
<path d="M1420 2208 c-7 -24 -18 -62 -26 -86 -16 -49 -18 -82 -5 -82 5 0 16
-3 25 -6 10 -4 16 -1 16 9 0 8 -4 17 -10 19 -6 2 -1 34 12 80 15 57 26 78 40
82 26 6 13 26 -17 26 -20 0 -26 -7 -35 -42z"/>
<path d="M1597 2137 c-6 -17 3 -38 14 -31 5 3 9 -13 9 -35 0 -21 -4 -41 -8
-43 -4 -1 -18 -24 -30 -51 -24 -51 -22 -90 7 -107 14 -8 14 -11 1 -19 -8 -5
-18 -7 -22 -5 -26 16 -71 -30 -81 -83 -11 -54 -38 -86 -75 -88 -34 -1 -38 -19
-8 -33 47 -21 97 4 112 56 4 15 7 30 6 35 -1 4 3 7 9 7 5 0 8 4 5 8 -10 16 39
77 64 81 34 4 43 22 20 38 -24 17 -19 44 24 125 43 80 40 115 -13 142 -22 12
-30 13 -34 3z"/>
<path d="M937 1836 c-18 -14 -19 -65 -2 -108 4 -11 3 -18 -4 -18 -6 0 -11 4
-11 9 0 6 -10 8 -22 5 -38 -7 -71 -13 -118 -19 -25 -3 -58 -8 -75 -12 -16 -4
-37 -7 -45 -8 -74 -11 -145 -23 -145 -25 0 -1 -16 -3 -35 -5 -42 -4 -103 -15
-107 -18 -3 -4 360 -142 372 -142 6 0 12 -3 15 -6 6 -6 136 -56 160 -61 8 -2
17 -6 20 -9 3 -3 27 -13 54 -22 46 -16 53 -16 142 5 l94 21 0 179 0 178 -27
-5 c-16 -4 -39 -9 -53 -12 -14 -2 -43 -7 -65 -9 -83 -8 -95 -13 -91 -40 6 -29
-2 -54 -16 -54 -5 0 -6 9 -3 20 4 11 1 35 -5 54 -18 56 -19 74 -4 87 32 26 5
40 -29 15z"/>
<path d="M1260 1603 c0 -146 2 -174 13 -164 8 6 16 9 19 6 5 -5 86 13 243 55
44 11 92 23 107 25 15 2 46 9 70 16 24 6 52 13 63 15 11 2 60 14 108 27 l89
22 -194 48 c-106 26 -203 50 -215 53 -19 5 -23 2 -23 -16 0 -34 -55 -80 -96
-80 -27 0 -72 13 -92 26 -2 2 1 19 8 39 11 33 15 36 40 31 18 -3 33 0 40 9 15
18 13 19 -85 41 -5 1 -29 7 -52 12 l-43 10 0 -175z"/>
<path d="M175 1485 c-66 -68 -124 -120 -129 -117 -5 3 -6 0 -2 -6 4 -7 2 -12
-4 -12 -7 0 -6 -5 2 -14 7 -8 15 -14 18 -13 13 3 50 -15 50 -24 0 -6 5 -7 10
-4 5 3 10 1 10 -5 0 -6 4 -9 9 -5 5 3 16 -1 24 -9 8 -8 17 -12 21 -9 3 4 6 1
6 -6 0 -7 5 -9 10 -6 6 3 10 1 10 -4 0 -6 3 -11 8 -10 15 2 52 -14 52 -23 0
-5 5 -6 10 -3 6 3 10 1 10 -5 0 -6 4 -9 9 -5 5 3 16 -2 24 -10 9 -8 19 -15 24
-15 16 0 63 -25 63 -33 0 -5 5 -5 10 -2 6 3 10 1 10 -5 0 -6 4 -8 10 -5 6 3
10 1 10 -5 0 -6 4 -8 10 -5 5 3 10 1 10 -5 0 -6 4 -9 9 -5 5 3 16 -1 24 -9 8
-8 17 -12 21 -9 3 4 6 1 6 -5 0 -7 3 -12 8 -11 15 2 52 -14 52 -23 0 -5 5 -6
10 -3 6 3 10 1 10 -5 0 -6 4 -9 9 -5 5 3 15 0 23 -7 7 -7 20 -14 28 -16 8 -2
16 -8 18 -13 4 -10 32 15 32 28 0 4 17 23 37 42 21 19 31 31 23 26 -8 -4 2 9
23 28 20 20 37 40 37 44 0 5 12 20 28 34 15 14 41 42 57 63 17 21 38 45 48 54
18 18 24 37 7 27 -5 -3 -10 -1 -10 5 0 6 -4 9 -9 5 -5 -3 -12 -1 -16 5 -4 6
-10 8 -15 5 -5 -3 -11 -1 -15 5 -3 5 -17 10 -29 10 -13 0 -29 7 -36 15 -7 8
-15 13 -19 11 -3 -2 -22 3 -41 11 -19 9 -44 18 -55 20 -10 2 -23 9 -27 16 -4
6 -8 8 -8 3 0 -6 -5 -5 -11 1 -6 6 -18 9 -25 6 -8 -3 -14 1 -14 8 0 7 -3 10
-6 6 -4 -3 -19 0 -34 8 -15 8 -30 11 -34 8 -3 -4 -6 -1 -6 6 0 7 -4 9 -10 6
-5 -3 -10 -1 -10 5 0 7 -7 10 -15 7 -8 -4 -17 -2 -20 4 -4 5 -11 7 -16 4 -5
-4 -9 -1 -9 5 0 6 -4 9 -9 5 -5 -3 -12 -1 -16 5 -4 6 -11 8 -16 5 -5 -4 -9 -1
-9 6 0 7 -3 9 -7 6 -3 -4 -12 -2 -20 4 -7 6 -13 9 -13 5 0 -4 -13 0 -29 8 -16
9 -31 12 -35 9 -3 -4 -6 -2 -6 3 0 32 -49 -3 -155 -111z"/>
<path d="M1820 1524 c-96 -24 -184 -45 -195 -48 -11 -2 -103 -25 -205 -51
-102 -25 -194 -48 -205 -50 -11 -2 -40 -10 -63 -16 l-44 -12 29 -26 c15 -14
51 -44 78 -66 28 -21 52 -42 55 -45 3 -3 30 -25 60 -50 30 -25 57 -47 60 -50
21 -23 97 -77 105 -74 27 7 286 88 325 101 25 8 52 16 60 18 8 2 67 20 130 40
63 20 167 53 231 72 l117 36 -127 99 c-69 54 -133 104 -141 111 -34 28 -79 57
-87 56 -4 -1 -87 -21 -183 -45z"/>
<path d="M1050 706 c0 -350 2 -636 5 -636 5 0 221 92 280 119 22 11 121 54
220 96 99 42 203 87 230 100 28 12 89 39 138 60 l87 37 0 338 0 338 -42 -13
c-24 -7 -144 -45 -267 -84 l-225 -70 -45 38 c-25 21 -104 86 -176 145 -71 60
-141 118 -155 130 -14 12 -31 25 -38 29 -9 7 -12 -123 -12 -627z"/>
<path d="M1005 1300 c3 -5 -1 -10 -9 -10 -9 0 -16 -7 -16 -15 0 -8 -4 -15 -8
-15 -5 0 -15 -11 -22 -25 -7 -14 -16 -23 -18 -20 -7 6 -38 -38 -34 -48 1 -5
-2 -6 -8 -2 -5 3 -10 3 -10 -2 0 -4 -17 -27 -38 -50 -59 -65 -77 -87 -80 -95
-1 -4 -14 -19 -29 -34 -25 -25 -28 -26 -57 -11 -17 8 -35 15 -40 15 -5 0 -12
4 -15 9 -4 6 -226 120 -312 161 -10 4 -5 -582 5 -597 7 -10 5 -12 -5 -7 -8 4
-5 1 5 -8 10 -8 23 -13 27 -10 5 3 9 1 9 -5 0 -6 12 -17 28 -25 15 -8 37 -24
50 -36 12 -11 22 -18 22 -15 0 3 25 -13 55 -35 30 -22 55 -37 55 -33 0 4 4 3
8 -2 13 -19 96 -80 88 -65 -5 8 1 6 12 -5 12 -11 27 -24 34 -30 7 -5 22 -17
33 -25 17 -13 18 -13 10 0 -4 8 5 3 21 -11 41 -38 134 -101 134 -92 0 5 5 0
11 -9 5 -10 17 -18 24 -18 8 0 15 -4 15 -10 0 -5 7 -10 15 -10 8 0 15 -4 15
-10 0 -5 8 -14 18 -19 17 -9 17 20 18 610 0 342 -4 619 -9 619 -4 0 -5 -4 -2
-10z"/>
</g>
</svg>
